<?xml version="1.0" encoding="UTF-8"?>
<svg id="Ebene_1" xmlns="http://www.w3.org/2000/svg" version="1.1" viewBox="0 0 2048 2048">
  <!-- Generator: Adobe Illustrator 30.3.0, SVG Export Plug-In . SVG Version: 2.1.3 Build 182)  -->
  <polygon points="546.8 411.5 600.9 497.5 910.6 985.4 1024.2 1165 1199.8 887.9 1448.4 496.3 1502.2 411.5 1639.2 411.5 1639.3 530.5 1442.1 828.3 1203.9 1188 1024 1460.5 928.9 1315.2 649.6 893.5 408.7 530.2 408.8 411.5 546.8 411.5" fill="#183157"/>
  <polygon points="786.1 1170.8 841 1252.8 409 1252.8 409 608 513.7 760 513.6 1170.7 786.1 1170.8" fill="#848d96"/>
  <polygon points="1262.2 1170.9 1534.6 1170.7 1534.7 760.2 1639.2 608.1 1639.3 1252.7 1207.5 1252.8 1262.2 1170.9" fill="#848d96"/>
  <path d="M1502.2,411.5l-53.8,84.8-844.1-.2c-2.3-.6-3,.4-3.4,1.3l-54.1-86h955.4Z" fill="#868f98"/>
  <polygon points="1593 1710.9 1592.7 1596.4 1534 1690.2 1510.9 1690.2 1450.9 1597.4 1450.8 1711 1406.5 1710.9 1406.4 1519.3 1448.7 1519.3 1522.7 1636.3 1595.6 1519.3 1638.8 1519.2 1638.8 1710.9 1593 1710.9" fill="#183157"/>
  <polygon points="790.9 1630.6 696.9 1630.7 696.9 1672.5 807.6 1672.5 807.6 1710.9 649.4 1710.9 649.4 1519.3 802 1519.3 801.9 1556.3 696.9 1556.3 696.9 1593.7 790.7 1593.7 790.9 1630.6" fill="#183157"/>
  <path d="M1317.8,1519.3h47.3c0-.1,0,100.8,0,100.8.2,37.3-11.3,71.1-46.9,86.4-28.7,12.3-62.1,12.2-90.6-.7-33.4-15.1-45.4-46.2-45.5-81.8v-104.9c0,0,47.2,0,47.2,0v106.8c.3,21.1,7.9,40.7,28.7,46.2,10.2,2.7,20.8,2.7,30.9,0,20.5-5.6,28.2-25.3,28.9-46.2v-106.7Z" fill="#183157"/>
  <polygon points="583.2 1519.3 631.4 1519.4 545.1 1710.9 497.3 1710.9 410.3 1519.6 462.4 1519.4 522.6 1654.3 554 1583.1 583.2 1519.3" fill="#183157"/>
  <polygon points="987 1672.5 987.3 1710.9 840.8 1710.9 840.9 1519.2 889.4 1519.3 889.4 1672.5 987 1672.5" fill="#183157"/>
  <polygon points="1161.2 1672.5 1161.2 1711 1013.7 1710.9 1013.7 1519.2 1061.9 1519.1 1061.8 1672.5 1161.2 1672.5" fill="#183157"/>
  <path d="M1082.4,960.9l-58.2,92.1-90.4-143.6-140.9-222-85.7-135.6h633.9s-63.2,100.4-63.2,100.4l-195.5,308.7ZM1200.5,630.2h-352.3s175.9,278.4,175.9,278.4l176.4-278.4Z" fill="#1c8a8f"/>
  <polygon points="1101.6 690 1024.2 813.5 946.4 689.9 1101.6 690" fill="#1c8a8f"/>
</svg>