<?xml version="1.0" encoding="UTF-8"?>
<svg id="Ebene_1" xmlns="http://www.w3.org/2000/svg" version="1.1" viewBox="0 0 2048 2048">
  <!-- Generator: Adobe Illustrator 30.3.0, SVG Export Plug-In . SVG Version: 2.1.3 Build 182)  -->
  <polygon points="546.8 411.5 600.9 497.5 910.6 985.4 1024.2 1165 1199.8 887.9 1448.4 496.3 1502.2 411.5 1639.2 411.5 1639.3 530.5 1442.1 828.3 1203.9 1188 1024 1460.5 928.9 1315.2 649.6 893.5 408.7 530.2 408.8 411.5 546.8 411.5" fill="#183157"/>
  <polygon points="786.1 1170.8 841 1252.8 409 1252.8 409 608 513.7 760 513.6 1170.7 786.1 1170.8" fill="#848d96"/>
  <polygon points="1262.2 1170.9 1534.6 1170.7 1534.7 760.2 1639.2 608.1 1639.3 1252.7 1207.5 1252.8 1262.2 1170.9" fill="#848d96"/>
  <path d="M1502.2,411.5l-53.8,84.8-844.1-.2c-2.3-.6-3,.4-3.4,1.3l-54.1-86h955.4Z" fill="#868f98"/>
  <path d="M1082.4,960.9l-58.2,92.1-90.4-143.6-140.9-222-85.7-135.6h633.9s-63.2,100.4-63.2,100.4l-195.5,308.7ZM1200.5,630.2h-352.3s175.9,278.4,175.9,278.4l176.4-278.4Z" fill="#1c8a8f"/>
  <polygon points="1101.6 690 1024.2 813.5 946.4 689.9 1101.6 690" fill="#1c8a8f"/>
</svg>