<?xml version="1.0" encoding="UTF-8"?>
<svg id="Ebene_1" xmlns="http://www.w3.org/2000/svg" version="1.1" viewBox="0 0 2048 2048">
  <!-- Generator: Adobe Illustrator 30.4.0, SVG Export Plug-In . SVG Version: 2.1.4 Build 226)  -->
  <polygon points="546.8 411.5 600.9 497.5 910.6 985.4 1024.2 1165 1199.8 887.9 1448.4 496.3 1502.2 411.5 1639.2 411.5 1639.3 530.5 1442.1 828.3 1203.9 1188 1024 1460.5 928.9 1315.2 649.6 893.5 408.7 530.2 408.8 411.5 546.8 411.5" fill="#363434"/>
  <g>
    <polygon points="786.1 1170.8 841 1252.8 409 1252.8 409 608 513.7 760 513.6 1170.7 786.1 1170.8" fill="#8f8e93"/>
    <polygon points="1262.2 1170.9 1534.6 1170.7 1534.7 760.2 1639.2 608.1 1639.3 1252.7 1207.5 1252.8 1262.2 1170.9" fill="#8f8e93"/>
    <path d="M1502.2,411.5l-53.8,84.8-844.1-.2c-2.3-.6-3,.4-3.4,1.3l-54.1-86h955.4Z" fill="#8f8e93"/>
  </g>
  <g>
    <polygon points="1591.7 1710.9 1591.4 1596.4 1532.7 1690.2 1509.6 1690.2 1449.6 1597.4 1449.5 1711 1405.2 1710.9 1405.1 1519.3 1447.4 1519.3 1521.4 1636.3 1594.3 1519.3 1637.5 1519.2 1637.5 1710.9 1591.7 1710.9" fill="#363434"/>
    <polygon points="789.6 1630.6 695.6 1630.7 695.6 1672.5 806.3 1672.5 806.3 1710.9 648.1 1710.9 648.1 1519.3 800.7 1519.3 800.6 1556.3 695.6 1556.3 695.6 1593.7 789.4 1593.7 789.6 1630.6" fill="#363434"/>
    <path d="M1316.5,1519.3h47.3v100.8c.2,37.3-11.3,71.1-46.9,86.4-28.7,12.3-62.1,12.2-90.6-.7-33.4-15.1-45.4-46.2-45.5-81.8v-104.9h47.2v106.8c.3,21.1,7.9,40.7,28.7,46.2,10.2,2.7,20.8,2.7,30.9,0,20.5-5.6,28.2-25.3,28.9-46.2v-106.7h0Z" fill="#363434"/>
    <polygon points="581.9 1519.3 630.1 1519.4 543.8 1710.9 496 1710.9 409 1519.6 461.1 1519.4 521.3 1654.3 552.7 1583.1 581.9 1519.3" fill="#363434"/>
    <polygon points="985.7 1672.5 986 1710.9 839.5 1710.9 839.6 1519.2 888.1 1519.3 888.1 1672.5 985.7 1672.5" fill="#363434"/>
    <polygon points="1159.9 1672.5 1159.9 1711 1012.4 1710.9 1012.4 1519.2 1060.6 1519.1 1060.5 1672.5 1159.9 1672.5" fill="#363434"/>
  </g>
  <path d="M1082.4,960.9l-58.2,92.1-90.4-143.6-140.9-222-85.7-135.6h633.9l-63.2,100.4-195.5,308.7h0ZM1200.5,630.2h-352.3l175.9,278.4,176.4-278.4h0Z" fill="#e9177b"/>
  <polygon points="1101.6 690 1024.2 813.5 946.4 689.9 1101.6 690" fill="#363434"/>
</svg>